# xmcd
#
# Track frame offsets: 
#        150
#        14945
#        31558
#        49053
#        66035
#        83326
#        99991
#        113048
#        130595
#        142305
#        158180
#        173627
#        188955
#        202555
#        218183
#
# Disc length: 2992 seconds
#
# Revision: 0
# Processed by: cddbd v1.5.2PL0 Copyright (c) Steve Scherf et al.
# Submitted via: ExactAudioCopyFreeDBPlugin 1.0
#
DISCID=c00bae0f
DTITLE=Leci Brandão - Eu e o Samba
DYEAR=2008
DGENRE=Samba
TTITLE0=Desperta Pra Felicidade
TTITLE1=Difícil Acreditar
TTITLE2=Mulher De Fibra
TTITLE3=Sei Que Não Valeu Te Amar
TTITLE4=O Bagulho Do Amante
TTITLE5=Pintou Saudade
TTITLE6=Agradecida A Deus
TTITLE7=Tributo a Martin Luther King
TTITLE8=Sem Perceber
TTITLE9=Casal Perfeito
TTITLE10=O Criador
TTITLE11=O Destino Do Pescador
TTITLE12=Dona Maria Segura
TTITLE13=Só Não Pode Sem Amor
TTITLE14=Saudação A Ogum
EXTD=
EXTT0=
EXTT1=
EXTT2=
EXTT3=
EXTT4=
EXTT5=
EXTT6=
EXTT7=
EXTT8=
EXTT9=
EXTT10=
EXTT11=
EXTT12=
EXTT13=
EXTT14=
PLAYORDER=
